<svg width="508" height="64" viewBox="0 0 508 64" fill="none" xmlns="http://www.w3.org/2000/svg">
    <style>
        .laravel { fill: #1B1B18 } @media (prefers-color-scheme:dark) { .laravel { fill: #fff } }
        .horizon { fill: #868682 } @media (prefers-color-scheme:dark) { .horizon { fill: #A1A09A } }
    </style>
<rect width="64" height="64" fill="#B13BC7"/>
<path d="M19.0086 47.2138C19.0032 47.2138 18.998 47.2118 18.9939 47.2083C16.7972 45.3315 15.0341 43.0002 13.8266 40.3753C12.6179 37.7479 11.9947 34.8893 12 31.9972C12 26.4722 14.2418 21.4723 17.8585 17.8556C25.5254 10.1915 37.9016 10.0307 45.766 17.4915C53.6296 24.9531 54.118 37.3205 46.8661 45.3779C39.6161 53.4341 27.2702 54.25 19.0233 47.2192C19.0192 47.2157 19.014 47.2138 19.0086 47.2138ZM17.3894 33.2305C17.391 33.2305 17.3925 33.2299 17.3937 33.2289C19.6011 31.2708 21.1681 28.6639 25.3338 28.6639C32.0006 28.6639 32.0006 35.3305 38.6675 35.3305C44.634 35.3305 46.9114 26.6482 42.9261 22.2078C39.9599 18.9027 35.5337 16.9786 30.7673 17.3806C22.6965 18.0613 16.7056 25.1546 17.383 33.2246C17.3833 33.2279 17.3861 33.2305 17.3894 33.2305Z" fill="#FDFDFC"/>
<path class="laravel" d="M103.659 7.625H96V55.5535H118.046V48.5012H103.659V7.625Z"/>
<path class="laravel" d="M145.087 27.9603C144.109 26.3627 142.722 25.1079 140.924 24.1946C139.126 23.2817 137.316 22.8251 135.496 22.8251C133.141 22.8251 130.988 23.2703 129.035 24.1602C127.08 25.0501 125.404 26.2723 124.006 27.8235C122.607 29.3757 121.519 31.1675 120.742 33.1978C119.964 35.2297 119.576 37.3643 119.576 39.6003C119.576 41.8831 119.964 44.0283 120.742 46.0362C121.519 48.0455 122.607 49.8258 124.006 51.377C125.404 52.9292 127.08 54.15 129.035 55.0399C130.988 55.9298 133.141 56.375 135.496 56.375C137.316 56.375 139.126 55.9183 140.924 55.0059C142.722 54.0936 144.11 52.8383 145.087 51.2402V55.5539H152.346V23.6471H145.087V27.9603ZM144.421 43.5027C143.977 44.7355 143.355 45.8081 142.556 46.7209C141.756 47.6342 140.791 48.3644 139.659 48.912C138.526 49.46 137.271 49.7335 135.895 49.7335C134.518 49.7335 133.275 49.46 132.165 48.912C131.054 48.364 130.1 47.6342 129.301 46.7209C128.502 45.8081 127.891 44.7355 127.469 43.5027C127.047 42.2705 126.837 40.9693 126.837 39.6003C126.837 38.2307 127.047 36.9296 127.469 35.6973C127.89 34.465 128.502 33.3929 129.301 32.4796C130.1 31.5672 131.055 30.8361 132.165 30.2886C133.275 29.7406 134.518 29.467 135.895 29.467C137.271 29.467 138.526 29.7406 139.659 30.2886C140.791 30.8366 141.756 31.5672 142.556 32.4796C143.355 33.3929 143.977 34.465 144.421 35.6973C144.864 36.9296 145.087 38.2307 145.087 39.6003C145.087 40.9693 144.864 42.2705 144.421 43.5027Z"/>
<path class="laravel" d="M204.099 27.9603C203.121 26.3627 201.734 25.1079 199.936 24.1946C198.138 23.2817 196.328 22.8251 194.508 22.8251C192.153 22.8251 190.001 23.2703 188.047 24.1602C186.093 25.0501 184.417 26.2723 183.018 27.8235C181.619 29.3757 180.531 31.1675 179.754 33.1978C178.977 35.2297 178.589 37.3643 178.589 39.6003C178.589 41.8831 178.977 44.0283 179.754 46.0362C180.531 48.0455 181.619 49.8258 183.018 51.377C184.417 52.9292 186.092 54.15 188.047 55.0399C190 55.9298 192.153 56.375 194.508 56.375C196.328 56.375 198.138 55.9183 199.936 55.0059C201.734 54.0936 203.122 52.8383 204.099 51.2402V55.5539H211.359V23.6471H204.099V27.9603ZM203.433 43.5027C202.988 44.7355 202.367 45.8081 201.568 46.7209C200.768 47.6342 199.803 48.3644 198.67 48.912C197.538 49.46 196.283 49.7335 194.907 49.7335C193.53 49.7335 192.286 49.46 191.177 48.912C190.066 48.364 189.112 47.6342 188.313 46.7209C187.513 45.8081 186.903 44.7355 186.481 43.5027C186.058 42.2705 185.849 40.9693 185.849 39.6003C185.849 38.2307 186.058 36.9296 186.481 35.6973C186.902 34.465 187.513 33.3929 188.313 32.4796C189.112 31.5672 190.067 30.8361 191.177 30.2886C192.286 29.7406 193.53 29.467 194.907 29.467C196.283 29.467 197.538 29.7406 198.67 30.2886C199.803 30.8366 200.768 31.5672 201.568 32.4796C202.367 33.3929 202.988 34.465 203.433 35.6973C203.876 36.9296 204.099 38.2307 204.099 39.6003C204.099 40.9693 203.876 42.2705 203.433 43.5027Z"/>
<path class="laravel" d="M291 7.625H283.741V55.5535H291V7.625Z"/>
<path class="laravel" d="M158.075 55.5535H165.335V30.9901H177.79V23.6471H158.075V55.5535Z"/>
<path class="laravel" d="M240.465 23.6471L231.34 48.0804L222.216 23.6471H214.862L226.778 55.5535H235.902L247.818 23.6471H240.465Z"/>
<path class="laravel" d="M263.652 22.8265C254.762 22.8265 247.725 30.3369 247.725 39.6007C247.725 49.8416 254.536 56.375 264.582 56.375C270.205 56.375 273.795 54.1648 278.181 49.3514L273.276 45.4504C273.273 45.4542 269.574 50.4469 264.051 50.4469C257.631 50.4469 254.928 45.1262 254.928 42.3733H279.013C280.278 31.8326 273.537 22.8265 263.652 22.8265ZM254.947 36.8278C255.003 36.2138 255.839 28.7541 263.594 28.7541C271.349 28.7541 272.291 36.2128 272.345 36.8278H254.947Z"/>
<path class="horizon" d="M479.715 55.685V23.5549H484.44V31.115H484.755V55.685H479.715ZM502.71 55.685V34.643C502.71 32.207 502.101 30.3799 500.883 29.1619C499.665 27.944 497.859 27.335 495.465 27.335C493.365 27.335 491.496 27.7969 489.858 28.7209C488.262 29.6449 487.002 30.926 486.078 32.564C485.196 34.202 484.755 36.113 484.755 38.297L483.936 30.674C485.028 28.2799 486.687 26.3899 488.913 25.004C491.181 23.6179 493.743 22.9249 496.599 22.9249C499.959 22.9249 502.647 23.8909 504.663 25.823C506.721 27.713 507.75 30.212 507.75 33.32V55.685H502.71Z"/>
<path class="horizon" d="M458.28 56.315C455.13 56.315 452.358 55.58 449.964 54.11C447.57 52.6399 445.701 50.645 444.357 48.125C443.055 45.563 442.404 42.686 442.404 39.494C442.404 36.26 443.076 33.4039 444.42 30.926C445.764 28.448 447.612 26.4949 449.964 25.0669C452.358 23.6389 455.13 22.9249 458.28 22.9249C461.472 22.9249 464.244 23.6389 466.596 25.0669C468.99 26.4949 470.838 28.448 472.14 30.926C473.484 33.4039 474.156 36.26 474.156 39.494C474.156 42.686 473.484 45.563 472.14 48.125C470.838 50.645 468.99 52.6399 466.596 54.11C464.244 55.58 461.472 56.315 458.28 56.315ZM458.28 52.031C460.464 52.031 462.354 51.506 463.95 50.456C465.546 49.364 466.785 47.873 467.667 45.983C468.549 44.093 468.99 41.909 468.99 39.431C468.99 35.735 468.003 32.774 466.029 30.548C464.097 28.322 461.514 27.209 458.28 27.209C455.088 27.209 452.505 28.322 450.531 30.548C448.557 32.774 447.57 35.735 447.57 39.431C447.57 41.909 448.011 44.093 448.893 45.983C449.775 47.873 451.014 49.364 452.61 50.456C454.248 51.506 456.138 52.031 458.28 52.031Z"/>
<path class="horizon" d="M414.508 55.6849V52.0309L434.038 25.5079L435.928 27.8389H415.138V23.5549H438.826V27.2089L419.296 53.7319L417.406 51.4009H439.456V55.6849H414.508Z"/>
<path class="horizon" d="M402.872 55.685V23.5549H407.912V55.685H402.872ZM402.494 16.247V10.325H408.29V16.247H402.494Z"/>
<path class="horizon" d="M359.366 56.3151C356.216 56.3151 353.444 55.5801 351.05 54.1101C348.656 52.64 346.787 50.6451 345.443 48.125C344.141 45.563 343.49 42.6861 343.49 39.4941C343.49 36.2601 344.162 33.404 345.506 30.9261C346.85 28.448 348.698 26.495 351.05 25.067C353.444 23.639 356.216 22.925 359.366 22.925C362.558 22.925 365.33 23.639 367.682 25.067C370.076 26.495 371.924 28.448 373.226 30.9261C374.57 33.404 375.242 36.2601 375.242 39.4941C375.242 42.6861 374.57 45.563 373.226 48.125C371.924 50.6451 370.076 52.64 367.682 54.1101C365.33 55.5801 362.558 56.3151 359.366 56.3151ZM359.366 52.0311C361.55 52.0311 363.44 51.5061 365.036 50.4561C366.632 49.3641 367.871 47.8731 368.753 45.9831C369.635 44.0931 370.076 41.909 370.076 39.431C370.076 35.7351 369.089 32.774 367.115 30.548C365.183 28.3221 362.6 27.209 359.366 27.209C356.174 27.209 353.591 28.3221 351.617 30.548C349.643 32.774 348.656 35.7351 348.656 39.431C348.656 41.909 349.097 44.0931 349.979 45.9831C350.861 47.8731 352.1 49.3641 353.696 50.4561C355.334 51.5061 357.224 52.0311 359.366 52.0311Z"/>
<path class="horizon" d="M303 55.685V7.68506H308.166V55.685H303ZM333.366 55.685V7.68506H338.532V55.685H333.366ZM305.646 28.792H335.634V33.3279H305.646V28.792Z"/>
<path class="horizon" d="M380.982 55.6949V23.5649H397.574V27.6949H386.022V55.6949H380.982Z"/>
</svg>
